Coordinates
version=1
nRows=22
nColumns=24
inDegrees=yes

Units are S.I. units (second, meters, Newtons, ...)
Angles are in degrees.

endheader
time	pelvis_tilt	pelvis_list	pelvis_rotation	pelvis_tx	pelvis_ty	pelvis_tz	hip_flexion_r	hip_adduction_r	hip_rotation_r	knee_angle_r	ankle_angle_r	subtalar_angle_r	mtp_angle_r	hip_flexion_l	hip_adduction_l	hip_rotation_l	knee_angle_l	ankle_angle_l	subtalar_angle_l	mtp_angle_l	lumbar_extension	lumbar_bending	lumbar_rotation
      3.98000000	    -18.30488475	      3.34441445	     -8.33181164	     -1.34218870	     -0.04398225	     -0.30257037	      1.04497662	     -1.55018201	     -1.48714701	    -18.82741091	     10.12916251	      2.43887493	      2.09237847	     45.95049850	     -4.01444576	    -23.18283361	    -13.31721769	     -1.41724528	      8.89265624	     23.58333229	     22.28400402	     -0.27520505	     -1.16225544
      3.98500000	    -18.20640566	      3.51738203	     -8.26390995	     -1.33379357	     -0.04441853	     -0.30320470	      0.85279756	     -1.98288466	     -1.75833332	    -19.51140054	      9.17406567	      2.74717758	      3.51359752	     45.82528626	     -3.73735464	    -22.99473691	    -13.97896013	     -1.89238621	      8.42236782	     23.86456529	     22.39493834	     -0.48524618	     -1.18651823
      3.99000000	    -18.20907308	      3.80810697	     -8.33164018	     -1.32533786	     -0.04484105	     -0.30360504	      0.87785115	     -2.48831717	     -1.69134050	    -20.37121000	      8.23065081	      2.96009616	      3.77245989	     45.76593333	     -3.48472815	    -22.94782612	    -14.63057167	     -2.47112452	      7.96985277	     23.86374145	     22.64696515	     -0.75043649	     -1.02820726
      3.99500000	    -18.17184004	      4.04340170	     -8.25576372	     -1.31686328	     -0.04520830	     -0.30435168	      0.88418427	     -3.01132471	     -2.06586937	    -21.25900646	      7.17995316	      3.43263632	      4.84994155	     45.68241941	     -3.12591145	    -22.56854038	    -15.26225226	     -3.26602837	      7.13230316	     24.04043852	     22.83985216	     -1.00503068	     -1.01557746
      4.00000000	    -18.17390082	      4.35818988	     -8.26129287	     -1.30830981	     -0.04547752	     -0.30495890	      0.99131677	     -3.58651127	     -2.16805940	    -22.18471082	      5.98229390	      3.66501272	      5.92272059	     45.61711685	     -2.76917065	    -22.28868948	    -15.87814675	     -4.15217609	      6.25303364	     24.10433320	     23.10635029	     -1.30785059	     -0.92693818
      4.00500000	    -18.19089489	      4.68533501	     -8.11840324	     -1.29955865	     -0.04569108	     -0.30567649	      1.08239459	     -4.18571534	     -2.45739535	    -23.03159283	      4.55657746	      3.71414851	      7.86110694	     45.57336873	     -2.29592944	    -21.86146123	    -16.48705967	     -5.12570302	      5.37363095	     24.15968627	     23.41764989	     -1.68784402	     -0.98581141
      4.01000000	    -18.20297157	      5.02083480	     -8.09484811	     -1.29110356	     -0.04582280	     -0.30636023	      1.33007342	     -4.79061956	     -2.54902359	    -24.11044282	      3.16544565	      3.87175697	      9.00092215	     45.55389189	     -1.88497589	    -21.38506403	    -17.14254320	     -6.12474982	      4.27750348	     23.85393906	     23.67757154	     -2.02047738	     -0.94765915
      4.01500000	    -18.24391573	      5.38532961	     -7.98456306	     -1.28235232	     -0.04588137	     -0.30713528	      1.58275246	     -5.43813635	     -2.75658462	    -25.10070305	      1.48744534	      3.84428632	     10.91015650	     45.54467973	     -1.36787459	    -20.74956444	    -17.78567990	     -7.01837755	      3.15037133	     23.27964473	     24.02171299	     -2.40780957	     -0.95499760
      4.02000000	    -18.26289780	      5.75252841	     -7.91891884	     -1.27377746	     -0.04585119	     -0.30789451	      1.91772340	     -6.08777117	     -2.86794433	    -26.20975388	     -0.27429727	      3.75642468	     12.72358251	     45.53329900	     -0.86392141	    -20.04896011	    -18.46686755	     -7.83953917	      1.93413548	     22.43559999	     24.31160406	     -2.78300379	     -0.93057259
      4.02500000	    -18.27081498	      6.11838917	     -7.84460502	     -1.26518728	     -0.04576619	     -0.30869123	      2.28629403	     -6.73833811	     -2.94707918	    -27.34528983	     -2.17597765	      3.55655154	     14.77036794	     45.52154682	     -0.33678844	    -19.26757856	    -19.19846351	     -8.47482762	      0.72424697	     21.28056991	     24.58955639	     -3.15693105	     -0.90559471
      4.03000000	    -18.22125921	      6.46270115	     -7.83651267	     -1.25671627	     -0.04556251	     -0.30941660	      2.67271088	     -7.35646479	     -2.88598382	    -28.52231217	     -4.22729996	      3.18378387	     17.15149597	     45.44938024	      0.14721558	    -18.43719884	    -19.97261617	     -8.86433081	     -0.36890552	     19.78585395	     24.78435063	     -3.49177480	     -0.79137910
      4.03500000	    -18.17018093	      6.78645632	     -7.79748721	     -1.24826908	     -0.04534258	     -0.31021258	      3.10963739	     -7.95596150	     -2.83296249	    -29.76470548	     -6.36966946	      2.81388504	     19.24165132	     45.39699870	      0.64039080	    -17.68716920	    -20.80297531	     -9.10539108	     -1.48949084	     18.23995688	     24.96697713	     -3.81840262	     -0.77338870
      4.04000000	    -18.17685667	      7.13729630	     -7.67427674	     -1.23975826	     -0.04520004	     -0.31111280	      3.65545281	     -8.58539055	     -2.86022953	    -31.10512316	     -8.53698660	      2.45186677	     20.71523029	     45.38891881	      1.22819226	    -16.88017049	    -21.59691555	     -9.25600057	     -2.67769637	     16.88481826	     25.21576972	     -4.19426310	     -0.82425672
      4.04500000	    -18.04263617	      7.41535888	     -7.70999836	     -1.23146926	     -0.04484937	     -0.31179851	      4.12874244	     -9.09702699	     -2.57911407	    -32.42032887	    -10.86424173	      1.76898241	     22.93271924	     45.23056825	      1.65015629	    -16.23473821	    -22.47978623	     -9.01458621	     -3.45717324	     14.99882400	     25.27527078	     -4.45952241	     -0.71969793
      4.05000000	    -17.98198347	      7.68799615	     -7.65367103	     -1.22328925	     -0.04463496	     -0.31263117	      4.75595565	     -9.60635481	     -2.40754664	    -33.91408629	    -13.08115266	      1.26732603	     23.92280367	     45.13721769	      2.13861407	    -15.53733218	    -23.27911388	     -8.86481417	     -4.47976627	     13.89099308	     25.38130635	     -4.74342801	     -0.70269327
      4.05500000	    -17.88868599	      7.96586128	     -7.62013680	     -1.21497649	     -0.04433218	     -0.31330698	      5.34759273	    -10.07707241	     -2.11138794	    -35.31660825	    -15.43077095	      0.40461397	     25.69034460	     44.97848792	      2.58608456	    -15.10169402	    -24.13437992	     -8.29850566	     -4.93167317	     12.07450307	     25.48115403	     -5.04445438	     -0.71300019
      4.06000000	    -17.67063865	      8.23877395	     -7.64887782	     -1.20691418	     -0.04390036	     -0.31379062	      5.91820572	    -10.51231294	     -1.72597153	    -36.89986669	    -17.62343573	     -0.37611977	     25.81102379	     44.63264103	      2.98831482	    -14.81202605	    -24.80422200	     -7.90380662	     -5.57893128	     11.78149963	     25.40728106	     -5.35362072	     -0.64441025
      4.06500000	    -17.63385421	      8.44983127	     -7.60147374	     -1.19892289	     -0.04367519	     -0.31453384	      6.69481973	    -10.87235760	     -1.38764904	    -38.43692936	    -19.82078301	     -1.30708425	     27.35548747	     44.50829968	      3.37168972	    -14.49857802	    -25.64522315	     -7.10063184	     -5.75416529	      9.78535542	     25.49508200	     -5.57748620	     -0.67268140
      4.07000000	    -17.40818532	      8.71355439	     -7.59879095	     -1.19104520	     -0.04321424	     -0.31505415	      7.34384451	    -11.26374764	     -0.98768121	    -40.09029223	    -21.81374735	     -2.18963342	     27.36099266	     44.08224205	      3.79121163	    -14.32108364	    -26.19198774	     -6.58074688	     -6.22741697	      9.61551356	     25.37486941	     -5.88988298	     -0.63567926
      4.07500000	    -17.24009624	      8.95416512	     -7.58561694	     -1.18330713	     -0.04279756	     -0.31555858	      8.10259550	    -11.59800036	     -0.58630634	    -41.77956667	    -23.66837327	     -3.17520085	     27.37735413	     43.69441923	      4.17197917	    -14.23787039	    -26.71095501	     -5.98454810	     -6.53130633	      9.33391572	     25.29083962	     -6.18037072	     -0.63123244
      4.08000000	    -17.09939720	      9.19331098	     -7.55979928	     -1.17564515	     -0.04239224	     -0.31605797	      8.92682769	    -11.90485269	     -0.18458284	    -43.48771725	    -25.34054504	     -4.21586504	     27.32866702	     43.29624142	      4.54818222	    -14.22198337	    -27.16802220	     -5.32050147	     -6.69593735	      9.04753785	     25.22053102	     -6.46450722	     -0.63192503
      4.08500000	    -17.10993564	      9.37470768	     -7.53933219	     -1.16816031	     -0.04213627	     -0.31650785	      9.96855921	    -12.08400899	      0.28304090	    -45.25294045	    -26.75948378	     -5.20464692	     26.91935622	     43.07043595	      4.80372739	    -14.32975445	    -27.74094775	     -4.31766648	     -6.26125633	      7.59725599	     25.28075512	     -6.66934425	     -0.65517749
